# xmcd
#
# Track frame offsets:
#	150
#	15655
#	26021
#	41318
#	57867
#	67541
#	85829
#	108245
#	123088
#	137324
#	159336
#
# Disc length: 2300 seconds
#
# Revision: 1
# Processed by: cddbd v1.5.2PL0 Copyright (c) Steve Scherf et al.
# Submitted via: audiograbber 1.83.01
#
DISCID=7208fa0b
DTITLE=Leaves of Grass - Game On
DYEAR=2006
DGENRE=blues
TTITLE0=Make You feel
TTITLE1=You Belong To Me
TTITLE2=On My Way
TTITLE3=I Wanna Know
TTITLE4=Wandering
TTITLE5=Long Time Ago
TTITLE6=My Days
TTITLE7=Hey Pretty Baby
TTITLE8=When She Smile
TTITLE9=Love Around Me
TTITLE10=I Say Hey
EXTD=
EXTT0=
EXTT1=
EXTT2=
EXTT3=
EXTT4=
EXTT5=
EXTT6=
EXTT7=
EXTT8=
EXTT9=
EXTT10=
PLAYORDER=
